<svg xmlns="http://www.w3.org/2000/svg" xmlns:xlink="http://www.w3.org/1999/xlink" width="40" height="40" viewBox="0 0 40 40">
  <defs>
    <polygon id="intellijdeodorant-a" points="0 3.518 0 14.252 7.961 17.839 16.041 14.252 16.041 3.518 7.961 0"/>
    <path id="intellijdeodorant-c" d="M4.98461558,1.15548596e-13 C5.75543519,1.15548596e-13 6.39003774,0.194404857 6.47122554,0.44414868 L6.48000026,0.498461558 L6.48201,2.12194081 C7.06549205,2.22225574 7.38925294,2.4220262 7.4344978,2.80015268 L7.44000028,2.89559419 L7.44,3.67124144 L9.65161773,5.59344301 C9.85337367,5.76876096 9.96923117,6.02292446 9.96923117,6.29021052 L9.96923117,21.433847 L4.53072793e-11,21.433847 L4.53072793e-11,6.29342164 C4.53072793e-11,6.02428139 0.117464113,5.76854501 0.321631859,5.59318251 L2.529,3.69624144 L2.52923089,2.89559419 C2.52923089,2.43920562 2.8422727,2.2147957 3.48866642,2.11110006 L3.48923091,0.498461558 L3.49800562,0.44414868 C3.57919343,0.194404857 4.21379598,1.15548596e-13 4.98461558,1.15548596e-13 Z M9.47076961,6.48000026 C7.97538493,6.81230796 6.48000026,6.97846182 4.98461558,6.97846182 C3.67615399,6.97846182 2.3676924,6.85125027 1.05923081,6.59682719 L0.498461558,6.48000026 L0.498461558,6.97846182 C1.99384623,7.31076952 3.48923091,7.47692337 4.98461558,7.47692337 C6.29307717,7.47692337 7.60153876,7.34971183 8.91000035,7.09528874 L9.47076961,6.97846182 L9.47076961,6.48000026 Z M7.274,4.13924144 L7.09040134,4.18621976 C6.38945265,4.36145694 5.68726071,4.44923093 4.98461558,4.44923093 C4.42249948,4.44923093 3.86067342,4.39305557 3.29954191,4.280864 L2.87882983,4.18621976 L2.715,4.14424144 L0.622354391,5.94330208 C0.594625371,5.96711891 0.570094967,5.99390085 0.549071423,6.02297681 L0.598583308,6.02945238 C2.06129236,6.35449884 3.52311299,6.51692335 4.98461558,6.51692335 C6.44611817,6.51692335 7.90793881,6.35449884 9.37064786,6.02945238 C9.38740583,6.02572839 9.40411372,6.0229623 9.42072072,6.02111333 C9.41203016,6.00832895 9.40113309,5.99471667 9.38944619,5.98171273 L9.34888599,5.94182677 L7.274,4.13924144 Z M6.97846182,3.48923091 C6.3138464,3.65538476 5.64923099,3.73846169 4.98461558,3.73846169 C4.45292325,3.73846169 3.92123093,3.68529245 3.3895386,3.57895399 L2.99076935,3.48923091 L2.99076935,3.73846169 C3.65538476,3.90461554 4.32000017,3.98769247 4.98461558,3.98769247 C5.51630791,3.98769247 6.04800024,3.93452323 6.57969257,3.82818477 L6.97846182,3.73846169 L6.97846182,3.48923091 Z M3.51938671,2.59239779 L3.41301978,2.61521864 C3.18420293,2.67023509 3.03533777,2.74592182 2.99928248,2.84657049 L2.99076935,2.89559419 L2.99,3.01324144 L3.10270887,3.04147283 C3.60533458,3.16712926 4.10716461,3.24242365 4.60860346,3.26751516 L4.98461558,3.27692323 C5.48588414,3.27692323 5.98744274,3.22676011 6.48969589,3.12627476 L6.8665223,3.04147283 L6.978,3.01324144 L6.97846182,2.89559419 L6.97530553,2.86762491 C6.94849871,2.75056014 6.75247056,2.66210559 6.44600534,2.60056147 C6.29684402,2.82366012 5.69927548,2.99076935 4.98461558,2.99076935 C4.26158264,2.99076935 3.65840083,2.81972144 3.51938671,2.59239779 Z"/>
  </defs>
  <g fill="none" fill-rule="evenodd">
    <g transform="translate(10.972 10.972)">
      <mask id="intellijdeodorant-b" fill="#fff">
        <use xlink:href="#intellijdeodorant-a"/>
      </mask>
      <use fill="#FFF" xlink:href="#intellijdeodorant-a"/>
      <path fill="#D0DADC" d="M5.43351509,8.69039386 L3.96067104,11.4400302 C5.28408925,11.4979855 6.81768186,11.1924341 8.56144887,10.5233761 C10.3052159,9.85431811 11.7345702,9.12335304 12.8495119,8.33048091 L9.96923117,7.06322163 C9.00935076,7.56548759 8.26735226,7.91063306 7.74323564,8.09865806 C7.21911903,8.28668306 6.44921218,8.48392832 5.43351509,8.69039386 Z" mask="url(#intellijdeodorant-b)"/>
      <g mask="url(#intellijdeodorant-b)">
        <g transform="rotate(-20 17.371 -1.673)">
          <mask id="intellijdeodorant-d" fill="#fff">
            <use xlink:href="#intellijdeodorant-c"/>
          </mask>
          <use fill="#003C68" fill-rule="nonzero" xlink:href="#intellijdeodorant-c"/>
          <circle cx="6.48" cy="1.495" r="1" fill="#F8B100" mask="url(#intellijdeodorant-d)"/>
        </g>
      </g>
    </g>
    <g transform="translate(2 2)">
      <path fill="#FFF" d="M16.947693,30.9046166 C18.0488638,30.9046166 18.9415392,31.797292 18.9415392,32.8984628 C18.9415392,33.9996337 18.0488638,34.8923091 16.947693,34.8923091 C15.8465221,34.8923091 14.9538467,33.9996337 14.9538467,32.8984628 C14.9538467,31.797292 15.8465221,30.9046166 16.947693,30.9046166 Z M2.99076935,25.4215395 C3.8166475,25.4215395 4.48615402,26.091046 4.48615402,26.9169241 C4.48615402,27.7428023 3.8166475,28.4123088 2.99076935,28.4123088 C2.1648912,28.4123088 1.49538467,27.7428023 1.49538467,26.9169241 C1.49538467,26.091046 2.1648912,25.4215395 2.99076935,25.4215395 Z M30.9415397,25.4215395 C31.7674179,25.4215395 32.4369244,26.091046 32.4369244,26.9169241 C32.4369244,27.7428023 31.7674179,28.4123088 30.9415397,28.4123088 C30.1156616,28.4123088 29.446155,27.7428023 29.446155,26.9169241 C29.446155,26.091046 30.1156616,25.4215395 30.9415397,25.4215395 Z M2.99076935,7.47692337 C3.8166475,7.47692337 4.48615402,8.1464299 4.48615402,8.97230805 C4.48615402,9.7981862 3.8166475,10.4676927 2.99076935,10.4676927 C2.1648912,10.4676927 1.49538467,9.7981862 1.49538467,8.97230805 C1.49538467,8.1464299 2.1648912,7.47692337 2.99076935,7.47692337 Z M16.947693,1.49538467 C17.7735711,1.49538467 18.4430777,2.1648912 18.4430777,2.99076935 C18.4430777,3.8166475 17.7735711,4.48615402 16.947693,4.48615402 C16.1218148,4.48615402 15.4523083,3.8166475 15.4523083,2.99076935 C15.4523083,2.1648912 16.1218148,1.49538467 16.947693,1.49538467 Z"/>
      <path fill="#2FA3FF" fill-rule="nonzero" d="M17.9446161,27.4707704 L17.9446161,30.077874 C19.1062233,30.4884432 19.9384623,31.5962631 19.9384623,32.8984628 C19.9384623,34.5502191 18.5994492,35.8892322 16.947693,35.8892322 C15.2959367,35.8892322 13.9569236,34.5502191 13.9569236,32.8984628 C13.9569236,31.5962631 14.7891626,30.4884432 15.9507699,30.077874 L15.9507699,27.4707704 L9.15554321,24.4506695 L5.86714411,26.0948691 C5.94164817,26.3560525 5.9815387,26.6318299 5.9815387,26.9169241 C5.9815387,28.5686804 4.64252565,29.9076935 2.99076935,29.9076935 C1.33901305,29.9076935 0,28.5686804 0,26.9169241 C0,25.2651679 1.33901305,23.9261548 2.99076935,23.9261548 C3.62149919,23.9261548 4.20662715,24.1213997 4.68901145,24.4547477 L7.97538493,22.8115609 L7.97538493,13.0776713 L4.68901145,11.4344845 C4.20662715,11.7678325 3.62149919,11.9630774 2.99076935,11.9630774 C1.33901305,11.9630774 0,10.6240643 0,8.97230805 C0,7.32055175 1.33901305,5.9815387 2.99076935,5.9815387 C4.64252565,5.9815387 5.9815387,7.32055175 5.9815387,8.97230805 C5.9815387,9.25740233 5.94164817,9.53317968 5.86714411,9.79436306 L9.15554321,11.4385627 L15.9507699,8.41846187 L15.9507699,5.81135823 C14.7891626,5.40078899 13.9569236,4.2929691 13.9569236,2.99076935 C13.9569236,1.33901305 15.2959367,0 16.947693,0 C18.5994492,0 19.9384623,1.33901305 19.9384623,2.99076935 C19.9384623,4.2929691 19.1062233,5.40078899 17.9446161,5.81135823 L17.9446161,8.41846187 L24.7398427,11.4385627 L28.0282418,9.79436306 C27.9537378,9.53317968 27.9138473,9.25740233 27.9138473,8.97230805 C27.9138473,7.32055175 29.2528604,5.9815387 30.9046166,5.9815387 C32.5563729,5.9815387 33.895386,7.32055175 33.895386,8.97230805 C33.895386,10.6240643 32.5563729,11.9630774 30.9046166,11.9630774 C30.2738868,11.9630774 29.6887588,11.7678325 29.2063745,11.4344845 L25.920001,13.0776713 L25.920001,22.8115609 L29.2063745,24.4547477 C29.6887588,24.1213997 30.2738868,23.9261548 30.9046166,23.9261548 C32.5563729,23.9261548 33.895386,25.2651679 33.895386,26.9169241 C33.895386,28.5686804 32.5563729,29.9076935 30.9046166,29.9076935 C29.2528604,29.9076935 27.9138473,28.5686804 27.9138473,26.9169241 C27.9138473,26.6318299 27.9537378,26.3560525 28.0282418,26.0948691 L24.7398427,24.4506695 L17.9446161,27.4707704 Z M9.96923117,22.6304078 L16.947693,25.7319463 L23.9261548,22.6304078 L23.9261548,13.2588244 L16.947693,10.1572859 L9.96923117,13.2588244 L9.96923117,22.6304078 Z M16.947693,33.895386 C17.4982784,33.895386 17.9446161,33.4490482 17.9446161,32.8984628 C17.9446161,32.3478775 17.4982784,31.9015397 16.947693,31.9015397 C16.3971076,31.9015397 15.9507699,32.3478775 15.9507699,32.8984628 C15.9507699,33.4490482 16.3971076,33.895386 16.947693,33.895386 Z M16.947693,1.99384623 C16.3971076,1.99384623 15.9507699,2.44018392 15.9507699,2.99076935 C15.9507699,3.54135478 16.3971076,3.98769247 16.947693,3.98769247 C17.4982784,3.98769247 17.9446161,3.54135478 17.9446161,2.99076935 C17.9446161,2.44018392 17.4982784,1.99384623 16.947693,1.99384623 Z M30.9046166,7.97538493 C30.3540312,7.97538493 29.9076935,8.42172261 29.9076935,8.97230805 C29.9076935,9.52289348 30.3540312,9.96923117 30.9046166,9.96923117 C31.455202,9.96923117 31.9015397,9.52289348 31.9015397,8.97230805 C31.9015397,8.42172261 31.455202,7.97538493 30.9046166,7.97538493 Z M30.9046166,25.920001 C30.3540312,25.920001 29.9076935,26.3663388 29.9076935,26.9169241 C29.9076935,27.4675095 30.3540312,27.9138473 30.9046166,27.9138473 C31.455202,27.9138473 31.9015397,27.4675095 31.9015397,26.9169241 C31.9015397,26.3663388 31.455202,25.920001 30.9046166,25.920001 Z M2.99076935,7.97538493 C2.44018392,7.97538493 1.99384623,8.42172261 1.99384623,8.97230805 C1.99384623,9.52289348 2.44018392,9.96923117 2.99076935,9.96923117 C3.54135478,9.96923117 3.98769247,9.52289348 3.98769247,8.97230805 C3.98769247,8.42172261 3.54135478,7.97538493 2.99076935,7.97538493 Z M2.99076935,25.920001 C2.44018392,25.920001 1.99384623,26.3663388 1.99384623,26.9169241 C1.99384623,27.4675095 2.44018392,27.9138473 2.99076935,27.9138473 C3.54135478,27.9138473 3.98769247,27.4675095 3.98769247,26.9169241 C3.98769247,26.3663388 3.54135478,25.920001 2.99076935,25.920001 Z"/>
    </g>
    <g fill-rule="nonzero" transform="translate(19.5 6.5)">
      <path fill="#FFF" d="M8.68774445,3.95114012 C8.37107452,2.69532512 8.51438629,1.83749393 9.11767975,1.37764657 C9.72097321,0.9177992 10.5134813,0.871543136 11.4952041,1.23887837 L11.7130325,1.09442426 C13.0466719,0.177280301 14.1821868,0.0394385313 15.1195771,0.680898955 C16.0569674,1.32235938 16.4979575,2.22447174 16.4425476,3.38723604 C17.6801394,3.94890108 18.3556581,4.58906672 18.4691037,5.30773295 C18.5825493,6.02639918 18.1270623,6.78011239 17.1026428,7.56887259 C16.8887935,9.17010524 16.4231944,10.132393 15.7058454,10.4557359 C14.9884964,10.7790788 14.0543629,10.5243819 12.9034449,9.69164508 C12.3955527,10.324341 11.7923257,10.563946 11.0937638,10.4104602 C10.395202,10.2569744 9.86061377,9.81563522 9.48999915,9.08644267 L0.482987186,9.10762067 L8.51647494,4.0857038 L8.68774445,3.95114012 Z"/>
      <path fill="#F8B100" d="M15.5177239,0.644560478 C16.3864809,1.28970189 16.8188563,2.23728855 16.6928334,3.23354222 C16.6968263,3.23335714 16.7008663,3.23430444 16.704904,3.23534928 C19.2332747,3.88962102 19.3041098,6.96551336 17.2499929,7.74952123 L17.2522027,7.57629342 C17.2522027,9.47991521 16.5258158,10.6051066 15.3286751,10.8780073 C14.44142,11.0802663 13.3926079,10.7471416 12.7779751,10.1424528 C11.8258616,11.0199204 10.1533824,10.8688596 9.32258476,9.4508019 L8.86911458,9.44701882 C8.29076146,9.44721429 7.57065235,9.45809585 6.45500801,9.4819751 L2.44788538,9.57078509 C1.44248436,9.58932806 0.825863448,9.59309271 0.265285286,9.58508251 C0.116890876,9.58296207 -0.00185132036,9.4482828 2.18609424e-05,9.28426792 L0.00524765722,9.22568364 C0.0114047928,9.14245042 0.056129415,9.06327088 0.13269062,9.01627468 C4.84368837,6.06218696 7.55518388,4.3627152 8.26717717,3.91785943 C7.83949905,2.56391763 8.33785598,1.41250011 9.41301683,0.93941493 C10.0725324,0.649219241 10.7994923,0.684716099 11.4057753,1.01539753 L11.409375,1.00972045 C12.5234692,-0.229459291 14.2455374,-0.300168775 15.5177239,0.644560478 Z M11.9372953,1.23562756 L11.8472686,1.32936818 C12.0562845,1.51841847 12.239148,1.75188908 12.3844236,2.02792551 C12.453541,2.15925472 12.4031084,2.32174883 12.2717792,2.39086626 C12.14045,2.45998369 11.9779559,2.40955107 11.9088384,2.27822185 C11.4331502,1.37437225 10.4651954,1.06359665 9.6294656,1.43132898 C8.7651348,1.81164612 8.39195689,2.75673252 8.84175422,3.93724788 L8.842,3.943 C8.84736186,3.95314779 8.8487495,3.9577491 8.85000859,3.96236945 L8.84175422,3.93724788 C8.85005765,3.95904066 8.85533786,3.9812428 8.85780181,4.00339254 C8.85794037,4.00466834 8.85807767,4.00600858 8.8582048,4.00734908 L8.85830725,4.05740195 C8.85818148,4.05876589 8.85804531,4.06012814 8.85789879,4.06148859 C8.85686186,4.07070682 8.85539742,4.07985401 8.85346926,4.08890012 C8.85123417,4.09952634 8.84828062,4.11012824 8.84469859,4.12050133 C8.84281601,4.12595773 8.84086589,4.1310933 8.83875859,4.13616915 C8.82662011,4.16539203 8.80911025,4.19276503 8.78702979,4.21642983 C8.77766583,4.22598865 8.7752597,4.22828646 8.77280433,4.23054473 C8.76148975,4.2410536 8.74867597,4.25096002 8.73486995,4.2597191 C8.73343081,4.26056913 8.73233123,4.2612549 8.731225,4.26193394 C4.87721423,6.67875365 2.36121375,8.25593417 1.18322357,8.9934755 C1.47428788,8.99205315 1.8056774,8.98785344 2.20087621,8.98109567 L7.63981281,8.8650138 C8.4390422,8.8519804 8.97245582,8.8499742 9.46296171,8.85698312 C9.55777996,8.858338 9.64049206,8.91381283 9.68736851,8.99647984 C9.69221268,9.00385198 9.69652831,9.01161035 9.70049516,9.01965513 C10.5870153,10.8175174 12.9768293,10.3834635 12.9525445,8.33553835 C12.9507848,8.18714197 13.0696573,8.0654164 13.2180537,8.06363739 C13.3664501,8.06189696 13.4881756,8.18076946 13.4899354,8.32916584 C13.4966071,8.89179109 13.3581333,9.36077426 13.1251016,9.72839617 L13.0407919,9.6347062 C13.493516,10.1876776 14.4448001,10.52828 15.2092269,10.354021 C16.0767963,10.1562495 16.6378279,9.36208783 16.7074423,7.89408773 C16.5456425,7.91831356 16.3755947,7.93173761 16.1962324,7.93173761 C16.0478256,7.93173761 15.9275181,7.81143012 15.9275181,7.66302331 C15.9275181,7.5146165 16.0478256,7.394309 16.1962324,7.394309 C18.6190459,7.394309 18.8802859,4.35709063 16.5743712,3.75670528 C16.4707388,4.08255931 16.3044953,4.40951789 16.0729707,4.72827023 C15.9857548,4.84834507 15.8177125,4.8749825 15.6976376,4.78776659 C15.5775628,4.70055068 15.5509254,4.53250833 15.6381413,4.41243349 C16.5274623,3.18805733 16.2701839,1.87274748 15.197313,1.0760305 C14.1857864,0.32486797 12.8553447,0.343465293 11.9372953,1.23562756 Z M11.8660339,5.56618399 C11.9096782,5.70802811 11.8300716,5.85839622 11.6882275,5.90204056 L4.70165562,8.05175498 C4.5598115,8.09539932 4.4094434,8.01579267 4.36579905,7.87394856 C4.32215471,7.73210445 4.40176135,7.58173634 4.54360547,7.538092 L11.5301773,5.38837758 C11.6720214,5.34473324 11.8223895,5.42433988 11.8660339,5.56618399 Z M11.5966949,7.20773311 C11.7449409,7.20009829 11.8707178,7.32673636 11.8776255,7.49058716 C11.8838424,7.63805288 11.7916565,7.76540287 11.6650858,7.79496399 L11.6217099,7.80108935 L9.47199547,7.91180188 C9.32374951,7.9194367 9.19797262,7.79279863 9.19106492,7.62894783 C9.184848,7.48148211 9.27703392,7.35413212 9.40360458,7.32457099 L9.44698049,7.31844564 L11.5966949,7.20773311 Z M13.9114134,6.93126334 C13.7947725,7.02302105 13.625832,7.00284923 13.5340743,6.88620832 C13.4423166,6.7695674 13.4624884,6.60062693 13.5791293,6.50886922 C14.6355952,5.67778098 13.7804387,3.96972821 12.2126422,4.36704086 C12.0687829,4.40349781 11.9226078,4.31643108 11.8861509,4.17257187 C11.8496939,4.02871266 11.9367606,3.88253753 12.0806199,3.84608058 C14.2083342,3.30687295 15.4262873,5.73956001 13.9114134,6.93126334 Z"/>
    </g>
  </g>
</svg>
